<svg width="123" height="34" viewBox="0 0 123 34" fill="none" xmlns="http://www.w3.org/2000/svg">
<path d="M48.8121 8.904C49.3721 9.08133 49.8108 9.38 50.1281 9.8C50.4455 10.2107 50.6041 10.7193 50.6041 11.326C50.6041 12.1847 50.2681 12.8473 49.5961 13.314C48.9335 13.7713 47.9628 14 46.6841 14H41.6161V4.2H46.4041C47.5988 4.2 48.5135 4.42867 49.1481 4.886C49.7921 5.34333 50.1141 5.964 50.1141 6.748C50.1141 7.224 49.9975 7.64867 49.7641 8.022C49.5401 8.39533 49.2228 8.68933 48.8121 8.904ZM43.8701 5.908V8.218H46.1241C46.6841 8.218 47.1088 8.12 47.3981 7.924C47.6875 7.728 47.8321 7.43867 47.8321 7.056C47.8321 6.67333 47.6875 6.38867 47.3981 6.202C47.1088 6.006 46.6841 5.908 46.1241 5.908H43.8701ZM46.5161 12.292C47.1135 12.292 47.5615 12.194 47.8601 11.998C48.1681 11.802 48.3221 11.4987 48.3221 11.088C48.3221 10.276 47.7201 9.87 46.5161 9.87H43.8701V12.292H46.5161ZM55.9472 14.168C54.9299 14.168 54.0106 13.9487 53.1892 13.51C52.3772 13.0713 51.7379 12.4693 51.2712 11.704C50.8139 10.9293 50.5852 10.0613 50.5852 9.1C50.5852 8.13867 50.8139 7.27533 51.2712 6.51C51.7379 5.73533 52.3772 5.12867 53.1892 4.69C54.0106 4.25133 54.9299 4.032 55.9472 4.032C56.9646 4.032 57.8792 4.25133 58.6912 4.69C59.5032 5.12867 60.1426 5.73533 60.6092 6.51C61.0759 7.27533 61.3092 8.13867 61.3092 9.1C61.3092 10.0613 61.0759 10.9293 60.6092 11.704C60.1426 12.4693 59.5032 13.0713 58.6912 13.51C57.8792 13.9487 56.9646 14.168 55.9472 14.168ZM55.9472 12.236C56.5259 12.236 57.0486 12.1053 57.5152 11.844C57.9819 11.5733 58.3459 11.2 58.6072 10.724C58.8779 10.248 59.0132 9.70667 59.0132 9.1C59.0132 8.49333 58.8779 7.952 58.6072 7.476C58.3459 7 57.9819 6.63133 57.5152 6.37C57.0486 6.09933 56.5259 5.964 55.9472 5.964C55.3686 5.964 54.8459 6.09933 54.3792 6.37C53.9126 6.63133 53.5439 7 53.2732 7.476C53.0119 7.952 52.8812 8.49333 52.8812 9.1C52.8812 9.70667 53.0119 10.248 53.2732 10.724C53.5439 11.2 53.9126 11.5733 54.3792 11.844C54.8459 12.1053 55.3686 12.236 55.9472 12.236ZM66.6397 14.168C65.6224 14.168 64.7031 13.9487 63.8817 13.51C63.0697 13.0713 62.4304 12.4693 61.9637 11.704C61.5064 10.9293 61.2777 10.0613 61.2777 9.1C61.2777 8.13867 61.5064 7.27533 61.9637 6.51C62.4304 5.73533 63.0697 5.12867 63.8817 4.69C64.7031 4.25133 65.6224 4.032 66.6397 4.032C67.6571 4.032 68.5717 4.25133 69.3837 4.69C70.1957 5.12867 70.8351 5.73533 71.3017 6.51C71.7684 7.27533 72.0017 8.13867 72.0017 9.1C72.0017 10.0613 71.7684 10.9293 71.3017 11.704C70.8351 12.4693 70.1957 13.0713 69.3837 13.51C68.5717 13.9487 67.6571 14.168 66.6397 14.168ZM66.6397 12.236C67.2184 12.236 67.7411 12.1053 68.2077 11.844C68.6744 11.5733 69.0384 11.2 69.2997 10.724C69.5704 10.248 69.7057 9.70667 69.7057 9.1C69.7057 8.49333 69.5704 7.952 69.2997 7.476C69.0384 7 68.6744 6.63133 68.2077 6.37C67.7411 6.09933 67.2184 5.964 66.6397 5.964C66.0611 5.964 65.5384 6.09933 65.0717 6.37C64.6051 6.63133 64.2364 7 63.9657 7.476C63.7044 7.952 63.5737 8.49333 63.5737 9.1C63.5737 9.70667 63.7044 10.248 63.9657 10.724C64.2364 11.2 64.6051 11.5733 65.0717 11.844C65.5384 12.1053 66.0611 12.236 66.6397 12.236ZM76.1562 10.15L74.8402 11.522V14H72.5862V4.2H74.8402V8.778L79.1802 4.2H81.7002L77.6402 8.568L81.9382 14H79.2922L76.1562 10.15ZM84.8444 14.168C84.0698 14.168 83.3184 14.0653 82.5904 13.86C81.8718 13.6453 81.2931 13.37 80.8544 13.034L81.6244 11.326C82.0444 11.634 82.5438 11.8813 83.1224 12.068C83.7011 12.2547 84.2798 12.348 84.8584 12.348C85.5024 12.348 85.9784 12.2547 86.2864 12.068C86.5944 11.872 86.7484 11.6153 86.7484 11.298C86.7484 11.0647 86.6551 10.8733 86.4684 10.724C86.2911 10.5653 86.0578 10.4393 85.7684 10.346C85.4884 10.2527 85.1058 10.15 84.6204 10.038C83.8738 9.86067 83.2624 9.68333 82.7864 9.506C82.3104 9.32867 81.8998 9.044 81.5544 8.652C81.2184 8.26 81.0504 7.73733 81.0504 7.084C81.0504 6.51467 81.2044 6.00133 81.5124 5.544C81.8204 5.07733 82.2824 4.70867 82.8984 4.438C83.5238 4.16733 84.2844 4.032 85.1804 4.032C85.8058 4.032 86.4171 4.10667 87.0144 4.256C87.6118 4.40533 88.1344 4.62 88.5824 4.9L87.8824 6.622C86.9771 6.10867 86.0718 5.852 85.1664 5.852C84.5318 5.852 84.0604 5.95467 83.7524 6.16C83.4538 6.36533 83.3044 6.636 83.3044 6.972C83.3044 7.308 83.4771 7.56 83.8224 7.728C84.1771 7.88667 84.7138 8.04533 85.4324 8.204C86.1791 8.38133 86.7904 8.55867 87.2664 8.736C87.7424 8.91333 88.1484 9.19333 88.4844 9.576C88.8298 9.95867 89.0024 10.4767 89.0024 11.13C89.0024 11.69 88.8438 12.2033 88.5264 12.67C88.2184 13.1273 87.7518 13.4913 87.1264 13.762C86.5011 14.0327 85.7404 14.168 84.8444 14.168ZM98.4202 4.2V14H96.1522V9.982H91.7002V14H89.4322V4.2H91.7002V8.064H96.1522V4.2H98.4202ZM107.207 12.18V14H99.6188V4.2H107.025V6.02H101.873V8.148H106.423V9.912H101.873V12.18H107.207ZM107.891 4.2H110.159V12.152H115.073V14H107.891V4.2ZM117.489 6.02V8.61H122.025V10.43H117.489V14H115.221V4.2H122.627V6.02H117.489ZM93.9584 28.9H89.4084L88.5404 31H86.2164L90.5844 21.2H92.8244L97.2064 31H94.8264L93.9584 28.9ZM93.2444 27.178L91.6904 23.426L90.1364 27.178H93.2444ZM101.345 21.2C102.213 21.2 102.965 21.3447 103.599 21.634C104.243 21.9233 104.738 22.334 105.083 22.866C105.429 23.398 105.601 24.028 105.601 24.756C105.601 25.4747 105.429 26.1047 105.083 26.646C104.738 27.178 104.243 27.5887 103.599 27.878C102.965 28.158 102.213 28.298 101.345 28.298H99.3712V31H97.1032V21.2H101.345ZM101.219 26.45C101.901 26.45 102.419 26.3053 102.773 26.016C103.128 25.7173 103.305 25.2973 103.305 24.756C103.305 24.2053 103.128 23.7853 102.773 23.496C102.419 23.1973 101.901 23.048 101.219 23.048H99.3712V26.45H101.219ZM110.342 21.2C111.21 21.2 111.962 21.3447 112.596 21.634C113.24 21.9233 113.735 22.334 114.08 22.866C114.426 23.398 114.598 24.028 114.598 24.756C114.598 25.4747 114.426 26.1047 114.08 26.646C113.735 27.178 113.24 27.5887 112.596 27.878C111.962 28.158 111.21 28.298 110.342 28.298H108.368V31H106.1V21.2H110.342ZM110.216 26.45C110.898 26.45 111.416 26.3053 111.77 26.016C112.125 25.7173 112.302 25.2973 112.302 24.756C112.302 24.2053 112.125 23.7853 111.77 23.496C111.416 23.1973 110.898 23.048 110.216 23.048H108.368V26.45H110.216ZM118.454 31.168C117.68 31.168 116.928 31.0653 116.2 30.86C115.482 30.6453 114.903 30.37 114.464 30.034L115.234 28.326C115.654 28.634 116.154 28.8813 116.732 29.068C117.311 29.2547 117.89 29.348 118.468 29.348C119.112 29.348 119.588 29.2547 119.896 29.068C120.204 28.872 120.358 28.6153 120.358 28.298C120.358 28.0647 120.265 27.8733 120.078 27.724C119.901 27.5653 119.668 27.4393 119.378 27.346C119.098 27.2527 118.716 27.15 118.23 27.038C117.484 26.8607 116.872 26.6833 116.396 26.506C115.92 26.3287 115.51 26.044 115.164 25.652C114.828 25.26 114.66 24.7373 114.66 24.084C114.66 23.5147 114.814 23.0013 115.122 22.544C115.43 22.0773 115.892 21.7087 116.508 21.438C117.134 21.1673 117.894 21.032 118.79 21.032C119.416 21.032 120.027 21.1067 120.624 21.256C121.222 21.4053 121.744 21.62 122.192 21.9L121.492 23.622C120.587 23.1087 119.682 22.852 118.776 22.852C118.142 22.852 117.67 22.9547 117.362 23.16C117.064 23.3653 116.914 23.636 116.914 23.972C116.914 24.308 117.087 24.56 117.432 24.728C117.787 24.8867 118.324 25.0453 119.042 25.204C119.789 25.3813 120.4 25.5587 120.876 25.736C121.352 25.9133 121.758 26.1933 122.094 26.576C122.44 26.9587 122.612 27.4767 122.612 28.13C122.612 28.69 122.454 29.2033 122.136 29.67C121.828 30.1273 121.362 30.4913 120.736 30.762C120.111 31.0327 119.35 31.168 118.454 31.168Z" fill="url(#paint0_linear)"/>
<path d="M10.5555 4.9111H29.5555V6.37499H10.5555V4.9111Z" fill="url(#paint1_linear)"/>
<path d="M30.6111 7.55555H10.4078C10.1384 7.55214 9.8726 7.49994 9.62638 7.40211C9.38017 7.30428 9.15864 7.16285 8.97518 6.98634C8.79171 6.80983 8.6501 6.6019 8.55889 6.37509C8.46767 6.14829 8.42875 5.9073 8.44445 5.66666C8.44314 5.18779 8.64516 4.72634 9.00965 4.37567C9.37414 4.025 9.87388 3.81129 10.4078 3.77777H30.6111C30.8911 3.77777 31.1596 3.67827 31.3575 3.50115C31.5555 3.32404 31.6667 3.08381 31.6667 2.83333C31.6667 2.58285 31.5555 2.34262 31.3575 2.16551C31.1596 1.98839 30.8911 1.88889 30.6111 1.88889H10.4078C9.31379 1.92317 8.27744 2.33626 7.51731 3.04105C6.75717 3.74584 6.33267 4.68723 6.33334 5.66666C6.32313 5.82079 6.32313 5.97532 6.33334 6.12944C6.32317 6.20472 6.32317 6.28083 6.33334 6.35611V28.3333C6.33267 29.3128 6.75717 30.2542 7.51731 30.9589C8.27744 31.6637 9.31379 32.0768 10.4078 32.1111H30.6111C30.8911 32.1111 31.1596 32.0116 31.3575 31.8345C31.5555 31.6574 31.6667 31.4171 31.6667 31.1667V8.73611V8.65111V8.56611C31.6673 8.30916 31.5585 8.06166 31.3624 7.87393C31.1663 7.68621 30.8977 7.57236 30.6111 7.55555Z" fill="url(#paint2_linear)"/>
<defs>
<linearGradient id="paint0_linear" x1="80.5" y1="0" x2="80.5" y2="34" gradientUnits="userSpaceOnUse">
<stop stop-color="#7CB9E8"/>
<stop offset="1" stop-color="#00FFFF" stop-opacity="0.74"/>
</linearGradient>
<linearGradient id="paint1_linear" x1="20.0555" y1="4.9111" x2="20.0555" y2="6.37499" gradientUnits="userSpaceOnUse">
<stop stop-color="#7CB9E8"/>
<stop offset="1" stop-color="#00FFFF" stop-opacity="0.74"/>
</linearGradient>
<linearGradient id="paint2_linear" x1="6" y1="4.5" x2="32" y2="32" gradientUnits="userSpaceOnUse">
<stop stop-color="#7CB9E8"/>
<stop offset="1" stop-color="#00FFFF" stop-opacity="0.74"/>
</linearGradient>
</defs>
</svg>
