<svg width="512" height="214" viewBox="0 0 512 214" fill="none" xmlns="http://www.w3.org/2000/svg">
<rect width="512" height="213.333" rx="106.667" fill="url(#paint0_radial)"/>
<path d="M200.008 43.008H216.008V63.464C224.658 56.6759 235.115 52.5846 246.075 51.7002C257.035 50.8158 268.013 53.1775 277.639 58.4907C287.266 63.804 295.116 71.8337 300.209 81.5784C305.302 91.3231 307.414 102.352 306.281 113.289C305.148 124.226 300.821 134.587 293.838 143.081C286.855 151.575 277.527 157.825 267.015 161.052C256.504 164.28 245.275 164.341 234.729 161.229C224.184 158.117 214.787 151.969 207.712 143.552L220.664 134.072C225.799 139.855 232.501 144.025 239.957 146.078C247.413 148.13 255.305 147.977 262.676 145.637C270.047 143.298 276.582 138.871 281.489 132.894C286.396 126.916 289.466 119.645 290.326 111.959C291.185 104.273 289.799 96.5031 286.333 89.5892C282.868 82.6753 277.473 76.9142 270.801 73.0034C264.129 69.0926 256.466 67.1998 248.741 67.5542C241.015 67.9085 233.558 70.4949 227.272 75H248V91H200V43L200.008 43.008Z" fill="white"/>
<defs>
<radialGradient id="paint0_radial" cx="0" cy="0" r="1" gradientUnits="userSpaceOnUse" gradientTransform="rotate(22.6199) scale(554.667 1331.2)">
<stop stop-color="#7CB9E8"/>
<stop offset="1" stop-color="#00FFFF" stop-opacity="0.74"/>
</radialGradient>
</defs>
</svg>
